<svg width="22" height="13" viewBox="0 0 22 13" fill="none" xmlns="http://www.w3.org/2000/svg">
<path d="M7.55844 12H10.7744L7.91044 7.184C9.23844 6.672 10.1824 5.696 10.1824 3.984C10.1824 1.104 7.92644 0.4 4.91844 0.4H0.454437V12H3.19044V7.632H4.91844H5.04644L7.55844 12ZM4.99844 2.704C6.29444 2.704 7.28644 2.944 7.28644 4.016C7.28644 5.104 6.29444 5.328 4.99844 5.328H3.19044V2.704H4.99844ZM11.6999 0.4V7.04C11.6999 10.864 13.2679 12.208 16.7399 12.208C20.3559 12.208 21.7319 10.512 21.7319 6.944V0.4H18.9959V7.168C18.9959 8.88 18.6599 9.968 16.7399 9.968C14.8359 9.968 14.4359 9.024 14.4359 7.328V0.4H11.6999Z" fill="white"/>
</svg>
